# xmcd
#
# Track frame offsets: 
#        150
#        18715
#        41630
#        59640
#        79082
#        100249
#        127356
#        146041
#        175511
#        196896
#        222503
#        240325
#        263712
#
# Disc length: 3764 seconds
#
# Revision: 0
# Processed by: cddbd v1.5.2PL0 Copyright (c) Steve Scherf et al.
# Submitted via: ExactAudioCopy v1.0b1
#
DISCID=c00eb20d
DTITLE=Billy Price and Fred Chapellier - Night Work
DYEAR=2008
DGENRE=Blues
TTITLE0=Smart Money
TTITLE1=My Love Comes Tumbling Down
TTITLE2=Night Work
TTITLE3=Dont Let My Baby Ride
TTITLE4=When The Lights Came On
TTITLE5=Love And Happiness
TTITLE6=Who You Re Workin For
TTITLE7=Under The Influence
TTITLE8=The Wrong Woman
TTITLE9=O.V. Wright
TTITLE10=All The Love In The World
TTITLE11=Champagne Blues And Pittsburgh
TTITLE12=Skunk Shuffle
EXTD=
EXTT0=
EXTT1=
EXTT2=
EXTT3=
EXTT4=
EXTT5=
EXTT6=
EXTT7=
EXTT8=
EXTT9=
EXTT10=
EXTT11=
EXTT12=
PLAYORDER=
